<svg xmlns="http://www.w3.org/2000/svg" viewBox="0 0 1920 1200" preserveAspectRatio="xMidYMid slice"><defs><linearGradient id="s" x2="0" y2="1"><stop stop-color="#586681"/><stop offset=".42" stop-color="#a7afc2"/><stop offset=".7" stop-color="#c3c4cc"/><stop offset="1" stop-color="#777e9a"/></linearGradient><radialGradient id="g"><stop stop-color="#e7ddd8" stop-opacity=".65"/><stop offset="1" stop-color="#dbd9df" stop-opacity="0"/></radialGradient></defs><path fill="url(#s)" d="M0 0h1920v1200H0z"/><ellipse cx="990" cy="590" rx="850" ry="590" fill="url(#g)"/><g fill="#f4eee2"><circle cx="122" cy="126" r="2"/><circle cx="254" cy="240" r="1.4"/><circle cx="381" cy="97" r="2"/><circle cx="481" cy="334" r="1.6"/><circle cx="614" cy="167" r="1.5"/><circle cx="751" cy="78" r="2.4"/><circle cx="923" cy="235" r="1.2"/><circle cx="1097" cy="121" r="2"/><circle cx="1268" cy="331" r="1.5"/><circle cx="1480" cy="97" r="1.7"/><circle cx="1614" cy="223" r="2.3"/><circle cx="1784" cy="126" r="1.5"/><circle cx="1853" cy="367" r="1.5"/><circle cx="139" cy="450" r="1.5"/><circle cx="319" cy="391" r="1"/><circle cx="1037" cy="54" r="1"/><circle cx="1219" cy="196" r="1"/><circle cx="1360" cy="148" r="1"/><circle cx="1552" cy="408" r="1"/><circle cx="1746" cy="504" r="1.3"/><circle cx="59" cy="318" r="1"/><circle cx="563" cy="64" r="1"/><circle cx="865" cy="374" r="1"/><circle cx="1022" cy="344" r="1"/><circle cx="701" cy="310" r="1"/></g><g fill="none" stroke="#eee8df" stroke-width="1" opacity=".7"><path d="M407 208v12m-6-6h12M1143 266v10m-5-5h10M1682 63v12m-6-6h12"/></g><path d="M1437 217a47 47 0 1 1-48-69 42 42 0 0 0 48 69" fill="#efe9d9"/><path d="m0 908 240-166 160 70 218-91 250 194 252-98 234 51 253-181 313 165v348H0Z" fill="#797f94"/><path d="M0 1007q304-141 610-30t684-9 626-35v267H0Z" fill="#5b657f"/><path d="M0 1108q374-80 723 43t763-18 434-41v108H0Z" fill="#414f69"/></svg>
